<?xml version="1.0" encoding="utf-8"?>
<!-- Generator: Adobe Illustrator 12.0.0, SVG Export Plug-In . SVG Version: 6.00 Build 51448)  -->
<!DOCTYPE svg PUBLIC "-//W3C//DTD SVG 1.1//EN" "http://www.w3.org/Graphics/SVG/1.1/DTD/svg11.dtd" [
	<!ENTITY ns_svg "http://www.w3.org/2000/svg">
	<!ENTITY ns_xlink "http://www.w3.org/1999/xlink">
]>
<svg  version="1.1" id="Layer_1" xmlns="&ns_svg;" xmlns:xlink="&ns_xlink;" width="199.999" height="90" viewBox="0 0 199.999 90"
	 overflow="visible" enable-background="new 0 0 199.999 90" xml:space="preserve">
<path d="M1.124,37.102c0-20.238,16.417-36.625,36.626-36.625c20.224,0,36.621,16.386,36.621,36.625
	c0,20.237-16.396,36.625-36.621,36.625C17.54,73.727,1.124,57.339,1.124,37.102"/>
<path d="M140.44,82.561c-1.976,1.22-2.767,1.603-4.009,1.955c-0.778,0.248-1.551,0.347-2.463,0.347c-1.94,0-3.7-0.928-4.594-2.426
	c-0.447-0.768-0.609-1.43-0.695-3.09h13.997v-2.421c0-5.725-3.707-9.702-9.019-9.702c-6.142,0-10.767,5.029-10.767,11.704
	c0,6.433,4.092,10.595,10.404,10.595c2.452,0,4.746-0.486,7.018-1.496c0.499-0.22,1.258-0.573,2.29-1.13l0.134-0.063l-2.157-4.366
	L140.44,82.561z M133.296,71.563c2.424,0,3.44,1.171,3.596,4.133h-7.907C129.451,73.071,131.015,71.563,133.296,71.563
	 M104.154,80.91l-7.272-21.217h-7.697v29.38h5.592V70.601c0.308,0.847,6.572,18.473,6.572,18.473h5.598
	c2.186-6.32,6.313-17.669,6.551-18.326c0,2.104-0.031,18.326-0.031,18.326h5.619v-29.38h-7.707L104.154,80.91z M157.611,82.64
	l-0.162,0.104c-1.388,0.913-2.183,1.277-2.812,1.277c-0.667,0-0.931-0.392-0.931-2.854V72.05h4.584v-4.229h-4.584v-6.406
	c0-0.449-0.168-0.854-0.168-0.854l-5.3,0.854v6.416c-0.241,0.036-3.145,0.543-3.145,0.543v3.676h3.145v12.79
	c0,3.199,1.363,4.683,4.299,4.683c1.496,0,3.18-0.486,4.807-1.41l0.689-0.41l1.439-0.877l-0.067-0.114L157.611,82.64z
	 M172.797,67.494c-1.604,0-2.91,1.21-4.883,4.506c-0.038-0.809-0.2-4.179-0.2-4.179h-5.004v21.231h5.738V79.25
	c0-1.521,0.419-2.687,1.42-3.89c0.791-0.966,1.706-1.516,2.52-1.516c0.546,0,0.972,0.171,1.524,0.604l0.19,0.129l1.82-5.49
	l-0.057-0.056C174.97,67.994,173.96,67.494,172.797,67.494 M188.074,67.224c-6.15,0-10.795,4.788-10.795,11.122
	c0,6.37,4.645,11.177,10.795,11.177c6.17,0,10.802-4.807,10.802-11.177C198.876,72.012,194.244,67.224,188.074,67.224
	 M188.074,84.954c-2.662,0-4.845-2.954-4.845-6.608c0-3.558,2.23-6.552,4.845-6.552c2.644,0,4.854,2.994,4.854,6.552
	C192.929,82,190.743,84.954,188.074,84.954 M195.035,67.138h0.238v-1.78h0.772v-0.23h-1.789v0.235h0.778V67.138z M196.837,65.357
	c0,0,0.597,1.67,0.639,1.784h0.32c0.041-0.118,0.629-1.79,0.629-1.79s0.003,1.623,0.003,1.79h0.232v-2.015h-0.416
	c-0.042,0.118-0.607,1.787-0.607,1.787s-0.574-1.669-0.616-1.787h-0.413v2.015h0.229V65.357z"/>
<path fill="#FFFFFF" d="M59.861,15.304v43.944h-9.229V34.441c-0.357,0.974-5.371,15.449-7.03,20.344l-4.124-12.306l9.07-27.175
	H59.861z M27.247,15.304H15.945v43.944h9.202V34.441c0.459,1.261,8.655,24.807,8.655,24.807h8.229L27.247,15.304z"/>
<rect fill="none" width="199.999" height="90"/>
</svg>
